PLOT

A trio of grifters (Thandie Newton, Gabriel Byrne and Stuart Townsend) plots the con of a lifetime when they scheme to hustle a notorious card shark known as "the Dean" (Sylvester Stallone). But in order to bankroll their plan, they cheat a gangster in a rigged poker game. Now, all bets are off when the murderous mobster comes looking for payback. Jamie Foxx and Melanie Griffith co-star in this twisting tale of deception, danger and double cross.

CAST

Stuart Townsend, Gabriel Byrne, Thandie Newton, Jamie Foxx, Melanie Griffith, Sylvester Stallone, Hal Holbrook, Roger Guenveur Smith, Bo Hopkins, Dina Merrill, Patrick Bauchau, B-Real, Michael Dorn, Charles Rocket, Greg Suddeth, Steve Heinze, Jason Cerbone, Frank Medrano, Jack Conley, Louis Freese, Mark Boone Junior, Rodney Rowland, Tony Burton

Director: Damian Nieman

General

Shade 2003 DVDRip Xvid LKRG

RIPPER : fasamoo
Format : AVI
Format/Info : Audio Video Interleave
File size : 700 MiB
Duration : 1h 30mn
Overall bit rate : 1 077 Kbps
Writing application : VirtualDubMod 1.5.4.1 (build 2178/release)
Writing library : VirtualDubMod build 2178/release
Language : English
Genre : Crime | Thriller


Video
ID : 0
Format : MPEG-4 Visual
Format profile : Advanced Simple@L5
Format settings, BVOP : Yes
Format settings, QPel : No
Format settings, GMC : No warppoints
Format settings, Matrix : Custom
Codec ID : XVID
Codec ID/Hint : XviD
Duration : 1h 30mn
Bit rate : 951 Kbps
Width : 720 pixels
Height : 288 pixels
Display aspect ratio : 2.500
Frame rate : 25.000 fps
Color space : YUV
Chroma subsampling : 4:2:0
Bit depth : 8 bits
Scan type : Progressive
Bits/(Pixel*Frame) : 0.183
Stream size : 618 MiB (88%)
Writing library : XviD 1.2.1 (UTC 2008-12-04)

Audio
ID : 1
Format : MPEG Audio
Format version : Version 1
Format profile : Layer 3
Mode : Joint stereo
Mode extension : MS Stereo
Codec ID : 55
Codec ID/Hint : MP3
Duration : 1h 30mn
Bit rate mode : Variable
Bit rate : 114 Kbps
Nominal bit rate : 128 Kbps
Channel(s) : 2 channels
Sampling rate : 48.0 KHz
Stream size : 73.8 MiB (11%)
Alignment : Aligned on interleaves
Interleave, duration : 24 ms (0.60 video frame)
Interleave, preload duration : 710 ms
Writing library : LAME3.98r
Encoding settings : -m j -V 4 -q 2 -lowpass 17 --abr 128
 
http://www.imdb.com/title/tt0323939/
 
http://leetleech.org/images/78733154633330767989.jpg